# xmcd
#
# Track frame offsets: 
#        150
#        14969
#        36750
#        50220
#        64222
#        82658
#        92742
#        108024
#        126841
#
# Disc length: 1865 seconds
#
# Revision: 0
# Processed by: cddbd v1.5.2PL0 Copyright (c) Steve Scherf et al.
# Submitted via: ExactAudioCopy v1.2
#
DISCID=74074709
DTITLE=Netto Rockfeller - The Latin American Mojo Style of Netto Rockf
DTITLE=eller
DYEAR=2018
DGENRE=Blues
TTITLE0=Rockfeller's Girl
TTITLE1=Half Past Midnight (feat. John Blues Boyd)
TTITLE2=Try Me One More Time
TTITLE3=Only My Mama and My Pillow (feat. Alamo Leal)
TTITLE4=Nessa Estrada (feat. Uirá Cabral)
TTITLE5=Troubles, Troubles (feat. Whitney Shay)
TTITLE6=Caramelo de Menta
TTITLE7=She's so Hard to Find (feat. Uirá Cabral)
TTITLE8=Rock and Roll Tonight (feat. Uirá Cabral)
EXTD=
EXTT0=
EXTT1=
EXTT2=
EXTT3=
EXTT4=
EXTT5=
EXTT6=
EXTT7=
EXTT8=
PLAYORDER=
